<svg width="54" height="54" viewBox="0 0 54 54" fill="none" xmlns="http://www.w3.org/2000/svg">
<path d="M11.9293 23.4948H17.1783V18.9434H12.543V12.5514H30.1788V15.6659H34.7255V11.9996C34.7255 11.4741 34.6221 10.9537 34.4212 10.4682C34.2204 9.98268 33.926 9.5416 33.5549 9.17015C33.1838 8.79871 32.7433 8.50417 32.2585 8.30339C31.7737 8.10261 31.2542 7.99952 30.7296 8H11.9922C11.4678 7.99951 10.9484 8.10264 10.4639 8.30346C9.9793 8.50429 9.53901 8.79888 9.1682 9.17038C8.7974 9.54187 8.50335 9.98298 8.3029 10.4685C8.10244 10.9539 7.99952 11.4742 8 11.9996V19.5619C8.00098 20.6053 8.4154 21.6056 9.15219 22.3431C9.88898 23.0806 10.8879 23.4948 11.9293 23.4948Z" fill="black"/>
<path d="M34.7218 30.4361V23.5219H41.4457V26.6364H45.9886V22.9664C45.9877 21.9079 45.5683 20.8928 44.8222 20.1433C44.0761 19.3937 43.0641 18.9707 42.0075 18.9668H23.259C22.2012 18.9688 21.1873 19.3909 20.4396 20.1406C19.6919 20.8904 19.2715 21.9066 19.2705 22.9664V27.7808H23.8135V23.5219H30.1788V29.8843H23.8135H19.2705H12.543V26.8846H8V30.4435C8.00098 31.5039 8.4219 32.5207 9.17037 33.2706C9.91883 34.0204 10.9337 34.4421 11.9922 34.4431H30.7296C31.2543 34.4426 31.7739 34.3386 32.2585 34.137C32.7431 33.9353 33.1833 33.64 33.554 33.2679C33.9247 32.8959 34.2187 32.4543 34.419 31.9684C34.6194 31.4825 34.7223 30.9618 34.7218 30.4361Z" fill="black"/>
<path d="M41.4466 40.8579H23.8144V36.5176H19.2715V41.4134C19.2734 42.4722 19.6944 43.4871 20.4421 44.2355C21.1897 44.9838 22.2031 45.4046 23.26 45.4056H42.0085C43.0666 45.4056 44.0815 44.9847 44.8301 44.2355C45.5786 43.4862 45.9997 42.4698 46.0007 41.4097V37.8878H41.4466V40.8579Z" fill="black"/>
</svg>
