<svg width="695" height="190" viewBox="0 0 695 190" fill="none" xmlns="http://www.w3.org/2000/svg">
<path d="M306.843 92.1372C304.926 90.0427 302.568 88.3951 299.938 87.312C297.308 86.2289 294.47 85.7369 291.627 85.8711H235.271C236.066 89.6615 237.847 93.1771 240.437 96.0651C242.279 98.1282 244.556 99.7599 247.105 100.843C249.655 101.927 252.414 102.435 255.184 102.331H291.627C292.361 102.326 293.086 102.483 293.752 102.79C294.418 103.098 295.007 103.548 295.478 104.108C296.505 105.265 297.044 106.773 296.981 108.317C297.01 109.089 296.883 109.859 296.609 110.581C296.335 111.304 295.918 111.965 295.384 112.525C294.885 113.107 294.266 113.576 293.569 113.898C292.872 114.221 292.114 114.391 291.345 114.396H240.343L235.271 129.172H291.627C294.466 129.25 297.289 128.713 299.9 127.599C302.51 126.485 304.847 124.82 306.749 122.719C310.588 118.492 312.698 112.987 312.666 107.288C312.746 101.681 310.662 96.2581 306.843 92.1372ZM255.184 60.5264C252.443 60.376 249.702 60.8255 247.154 61.8435C244.606 62.8615 242.314 64.423 240.437 66.4183C238.01 69.053 236.326 72.2793 235.553 75.7706H303.556L308.252 60.5264H255.184Z" fill="black"/>
<g clip-path="url(#clip0_1979_35)">
<path d="M361.052 113.641C358.298 113.646 355.635 112.65 353.563 110.839C352.598 109.854 351.843 108.684 351.345 107.4C350.846 106.116 350.613 104.744 350.661 103.367V88.5173H333.53V106.262C333.476 112.194 335.723 117.917 339.802 122.233C341.971 124.521 344.605 126.322 347.526 127.513C350.448 128.705 353.592 129.261 356.746 129.144H403.552L408.42 113.641H361.052ZM356.746 60.4985C353.596 60.3451 350.449 60.8752 347.524 62.0522C344.599 63.2293 341.965 65.0253 339.802 67.3164C337.533 69.6885 335.808 72.5248 334.747 75.6286H403.646L408.42 60.4985H356.746Z" fill="black"/>
</g>
<g clip-path="url(#clip1_1979_35)">
<path d="M429.096 90.3322V129.144H446.262V109.13L429.096 90.3322ZM482.647 103.893H486.752C489.524 104.041 492.296 103.583 494.873 102.549C497.451 101.515 499.773 99.9316 501.679 97.9076C505.611 93.5727 507.689 87.8634 507.463 82.0087C507.562 76.3987 505.489 70.9685 501.679 66.858C499.783 64.7465 497.445 63.0814 494.832 61.982C492.22 60.8825 489.396 60.3759 486.565 60.4984H434.32L429.096 75.7426H483.953C484.869 75.729 485.776 75.9141 486.614 76.2854C487.451 76.6568 488.199 77.2054 488.804 77.8937C490.004 79.2957 490.637 81.0975 490.577 82.9439C490.64 84.8075 489.97 86.6212 488.711 87.9941C488.104 88.7117 487.345 89.2852 486.49 89.6733C485.635 90.0614 484.705 90.2545 483.766 90.2387H448.781L484.513 129.144H507.837L482.647 103.893Z" fill="black"/>
</g>
<g clip-path="url(#clip2_1979_35)">
<path d="M595.999 113.64L591.258 129.144H528.699V60.498H545.617V113.64H595.999Z" fill="black"/>
</g>
<path d="M110.958 86.2129H125.597V73.5196H112.67V55.6933H161.854V64.3792H174.534V54.1544C174.534 52.6887 174.245 51.2374 173.685 49.8834C173.125 48.5294 172.304 47.2993 171.269 46.2634C170.234 45.2275 169.005 44.4061 167.653 43.8461C166.302 43.2862 164.853 42.9986 163.39 43H111.134C109.671 42.9986 108.223 43.2862 106.871 43.8463C105.52 44.4064 104.292 45.228 103.258 46.264C102.224 47.3001 101.404 48.5303 100.845 49.8842C100.286 51.2381 99.9986 52.6892 100 54.1544V75.2444C100.003 78.1544 101.158 80.9442 103.213 83.0009C105.268 85.0576 108.054 86.2129 110.958 86.2129Z" fill="black"/>
<path d="M174.523 105.578V86.2954H193.275V94.9814H205.945V84.7462C205.942 81.794 204.773 78.9631 202.692 76.8728C200.611 74.7824 197.789 73.6027 194.842 73.5918H142.555C139.605 73.5973 136.777 74.7745 134.692 76.8655C132.607 78.9565 131.435 81.7905 131.432 84.7462V98.1727H144.102V86.2954H161.854V104.039H144.102H131.432H112.67V95.6733H100V105.599C100.003 108.556 101.177 111.392 103.264 113.483C105.351 115.574 108.182 116.75 111.134 116.753H163.39C164.853 116.752 166.302 116.462 167.653 115.899C169.005 115.337 170.233 114.513 171.267 113.476C172.3 112.438 173.12 111.206 173.679 109.851C174.238 108.496 174.525 107.044 174.523 105.578Z" fill="black"/>
<path d="M193.275 134.632H144.101V122.527H131.432V136.181C131.437 139.134 132.611 141.964 134.696 144.051C136.781 146.139 139.608 147.312 142.555 147.315H194.842C197.793 147.315 200.623 146.141 202.711 144.051C204.799 141.962 205.973 139.127 205.976 136.171V126.349H193.275V134.632Z" fill="black"/>
<defs>
<clipPath id="clip0_1979_35">
<rect width="74.7029" height="68.6459" fill="white" transform="translate(333.529 60.498)"/>
</clipPath>
<clipPath id="clip1_1979_35">
<rect width="78.7408" height="68.6459" fill="white" transform="translate(429.096 60.498)"/>
</clipPath>
<clipPath id="clip2_1979_35">
<rect width="67.2999" height="68.6459" fill="white" transform="translate(528.699 60.498)"/>
</clipPath>
</defs>
</svg>
